<?xml version="1.0" encoding="utf-8"?>
<!-- Generator: Adobe Illustrator 25.4.1, SVG Export Plug-In . SVG Version: 6.00 Build 0)  -->
<svg version="1.1" id="Layer_1" xmlns="http://www.w3.org/2000/svg" xmlns:xlink="http://www.w3.org/1999/xlink" x="0px" y="0px"
	 viewBox="0 0 391 72" style="enable-background:new 0 0 391 72;" xml:space="preserve">
<style type="text/css">
	.st0{fill:#59595B;}
	.st1{fill:#FFFFFF;}
	.st2{fill:#CF2036;}
</style>
<g>
	<g>
		<path class="st0" d="M112.7,1h15.9c3.4,0,6.2,0.4,8.2,1.3c2.1,0.8,3.5,2,4.5,3.6c0.9,1.5,1.4,3.3,1.4,5.4c0,1.9-0.4,3.5-1.3,5
			c-0.8,1.4-2.2,2.6-4.1,3.6c2.4,1,4,2.3,5,3.9c1,1.6,1.5,3.5,1.5,5.6c0,3.5-1.2,6.3-3.6,8.5c-2.4,2.1-6.2,3.2-11.4,3.2h-16.2V1
			H112.7z M127.9,17.1c2.2,0,3.8-0.4,4.8-1.2c1-0.8,1.5-2,1.5-3.6s-0.5-2.8-1.5-3.6c-1-0.7-2.8-1.1-5.2-1.1h-6.6v9.5H127.9z
			 M128.1,34.4c2.7,0,4.6-0.5,5.6-1.4c1-1,1.5-2.3,1.5-4.1c0-1.9-0.5-3.3-1.6-4.2c-1.1-0.9-2.9-1.4-5.4-1.4h-7.4v11h7.3V34.4z"/>
		<path class="st0" d="M158.7,1h10.4l14.2,40h-9.1l-3-8.8h-15l-3,8.8h-8.8L158.7,1z M169.1,25l-5.4-16.3L158.4,25H169.1z"/>
		<path class="st0" d="M213.6,38.6c-2.7,2.3-6.8,3.4-12.1,3.4c-5.1,0-9.1-1.1-12.1-3.2c-3-2.2-4.6-5.5-5-10h8.7
			c0.3,2.2,1.2,3.8,2.6,4.8c1.4,1,3.4,1.5,6.1,1.5c2.6,0,4.4-0.5,5.4-1.5c1-1,1.5-2.2,1.5-3.7c0-1.2-0.4-2.2-1.1-3.1
			c-0.7-0.9-2.2-1.5-4.4-1.8l-5.3-1c-4.3-0.8-7.5-2.1-9.6-3.9c-2.1-1.8-3.2-4.5-3.2-8c0-2.6,0.7-4.8,2-6.6c1.3-1.8,3.2-3.1,5.6-4.1
			c2.4-0.9,5.2-1.4,8.3-1.4c3.5,0,6.3,0.5,8.5,1.5c2.2,1,3.9,2.3,5.1,4s1.9,3.7,2.2,5.9l-8.5,1.1c-0.5-1.9-1.3-3.2-2.3-4.1
			c-1.1-0.9-2.8-1.3-5.2-1.3c-2.5,0-4.4,0.4-5.4,1.3c-1.1,0.9-1.6,2-1.6,3.3s0.4,2.4,1.2,3.1c0.8,0.7,2.3,1.3,4.3,1.7l5.5,1.1
			c4.4,0.9,7.7,2.2,9.7,4.1c2,1.9,3,4.5,3,8C217.6,33.2,216.3,36.3,213.6,38.6z"/>
		<path class="st0" d="M222.6,1h27.7v7.1h-19V17h17.9v7.1h-17.9v9.7h20.2l-0.9,7.1h-28V1z"/>
		<path class="st0" d="M256.5,1h15.9c3.4,0,6.2,0.4,8.2,1.3c2.1,0.8,3.5,2,4.5,3.6c0.9,1.5,1.4,3.3,1.4,5.4c0,1.9-0.4,3.5-1.3,5
			c-0.8,1.4-2.2,2.6-4.1,3.6c2.4,1,4,2.3,5,3.9c1,1.6,1.5,3.5,1.5,5.6c0,3.5-1.2,6.3-3.6,8.5c-2.4,2.1-6.2,3.2-11.4,3.2h-16.1V1z
			 M271.7,17.1c2.2,0,3.8-0.4,4.8-1.2c1-0.8,1.5-2,1.5-3.6s-0.5-2.8-1.5-3.6c-1-0.7-2.8-1.1-5.2-1.1h-6.6v9.5H271.7z M271.9,34.4
			c2.7,0,4.6-0.5,5.6-1.4c1-1,1.5-2.3,1.5-4.1c0-1.9-0.5-3.3-1.6-4.2s-2.9-1.4-5.4-1.4h-7.4v11h7.3V34.4z"/>
		<path class="st0" d="M303.1,1h10.4l14.2,40h-9.1l-3-8.8h-15l-3,8.8h-8.8L303.1,1z M313.4,25L308,8.7L302.7,25H313.4z"/>
		<path class="st0" d="M331.3,1h8.8v32.3h18.8l-1,7.7h-26.7V1H331.3z"/>
		<path class="st0" d="M363.4,1h8.8v32.3H391l-1,7.7h-26.7V1H363.4z"/>
	</g>
	<g>
		<path class="st0" d="M112.7,47.6h12.8c7.1,0,10.6,2.4,10.6,7.1c0,3.2-1.8,5.4-5.4,6.4l6.9,10.3h-4.4l-6.3-9.6c-0.2,0-0.4,0-0.7,0
			c-0.3,0-0.6,0-1.1,0h-8.6v9.6h-3.7V47.6H112.7z M125.1,58.9c4.7,0,7-1.4,7-4.2c0-1.5-0.5-2.5-1.6-3.2c-1.1-0.7-2.8-1-5.3-1h-8.8
			v8.4C116.4,58.9,125.1,58.9,125.1,58.9z"/>
		<path class="st0" d="M141.9,47.6h21.8v2.9h-18v7.2h17.1v2.9h-17.1v7.9h18.8l-0.7,2.9h-21.9L141.9,47.6L141.9,47.6z"/>
		<path class="st0" d="M169.6,47.6h20.7v2.9h-16.9V58h16.1v2.9h-16.1v10.5h-3.8L169.6,47.6L169.6,47.6z"/>
		<path class="st0" d="M194.9,47.6h21.8v2.9h-18v7.2h17.1v2.9h-17.1v7.9h18.8l-0.7,2.9h-21.9L194.9,47.6L194.9,47.6z"/>
		<path class="st0" d="M222.3,47.6h12.8c7.1,0,10.6,2.4,10.6,7.1c0,3.2-1.8,5.4-5.4,6.4l6.9,10.3h-4.4l-6.3-9.6c-0.2,0-0.4,0-0.7,0
			c-0.3,0-0.6,0-1.1,0h-8.6v9.6h-3.7V47.6H222.3z M234.7,58.9c4.7,0,7-1.4,7-4.2c0-1.5-0.5-2.5-1.6-3.2c-1.1-0.7-2.8-1-5.3-1H226
			v8.4C226,58.9,234.7,58.9,234.7,58.9z"/>
		<path class="st0" d="M251.1,47.6h21.8v2.9h-18v7.2H272v2.9h-17.1v7.9h18.8l-0.7,2.9h-21.9L251.1,47.6L251.1,47.6z"/>
		<path class="st0" d="M278.4,47.6h3.7l18.2,19.1V47.6h3.7v23.8h-3.7l-18.2-19.1v19.1h-3.7V47.6z"/>
		<path class="st0" d="M335.9,54.8l-3.7,0.5c-0.8-1.9-1.9-3.3-3.4-4.1c-1.5-0.8-3.5-1.3-6.2-1.3c-2.2,0-4.1,0.4-5.7,1.2
			c-1.6,0.8-2.8,1.9-3.7,3.3c-0.9,1.4-1.3,3.1-1.3,5.1s0.4,3.7,1.3,5.1c0.9,1.4,2.1,2.5,3.7,3.3c1.6,0.8,3.5,1.1,5.8,1.1
			c2.8,0,5-0.4,6.6-1.3c1.6-0.9,2.6-2.3,3.1-4.2h3.9c-0.5,2.7-2,4.8-4.3,6.3c-2.3,1.4-5.4,2.2-9.3,2.2c-3,0-5.6-0.5-7.8-1.5
			s-3.9-2.5-5.1-4.3c-1.2-1.9-1.8-4.1-1.8-6.6c0-2.5,0.6-4.7,1.8-6.6c1.2-1.9,2.9-3.3,5.1-4.4c2.2-1,4.8-1.6,7.7-1.6
			C329.8,47,334.3,49.6,335.9,54.8z"/>
		<path class="st0" d="M340.6,47.6h21.8v2.9h-18v7.2h17.1v2.9h-17.1v7.9h18.8l-0.7,2.9h-21.9L340.6,47.6L340.6,47.6z"/>
	</g>
	<g>
		<path class="st1" d="M102.2,0v72c0,0-14.9-10.1-37-10.1C47.4,61.9,10,64.9,0,16c0,0,6.8,5.9,20.7,5.9C43.2,22,50.5,0,102.2,0z"/>
		<path class="st2" d="M74.3,9.6c1-0.1,2.8-0.2,4.3-0.3c-1,1.4-1.9,2.8-2.6,4.3L71.6,14l-1.4-3.8c0.9-1.2,1.9-2.4,3-3.5
			C73.6,7.7,74,8.8,74.3,9.6z M73.7,55.1l4.6-0.4l0.9-4.8c-1.2-1.6-2.3-3.3-3.2-5.1c-0.3,1.5-0.8,4.6-1.1,6.2
			c-1.1,0.1-3,0.3-4.5,0.4C71.3,52.7,72.5,54,73.7,55.1z M73.3,20.4c0.5-1.7,1-3.3,1.7-4.9c-1.6,0.6-3.9,1.4-5.1,1.8
			c-0.6-0.8-1.5-2.1-2.4-3.3c-0.8,1.3-1.4,2.7-2,4.2l2.8,4L73.3,20.4z M72.6,47.8l2.4-5c-0.8-1.8-1.4-3.6-1.9-5.5
			c-0.6,1.2-2.1,4.5-2.8,6c-1.2-0.2-3.3-0.6-4.9-0.8c0.6,1.6,1.3,3,2,4.5L72.6,47.8z M63.3,27.4l4.2,3.5l4.6-3.2
			c0.1-1.8,0.3-3.7,0.7-5.4c-1.3,0.9-3.8,2.6-5.1,3.5c-0.9-0.7-2.4-2-3.7-3C63.7,24.3,63.5,25.9,63.3,27.4z M102.2,25.1V0
			c-9.7,0-17.7,0.8-24.7,2C89.1,4.7,98.6,13.4,102.2,25.1z M72.7,35.4c-0.1-0.3-0.1-0.6-0.2-0.8c-0.3-1.6-0.4-3.2-0.4-4.8
			c-0.9,1-3.2,3.8-4.3,5.1c-1.1-0.5-3.1-1.4-4.6-2.1c0.1,1.1,0.2,2.2,0.3,3.3c0.1,0.5,0.2,1,0.3,1.5l5.1,2.3L72.7,35.4z M36.4,40.3
			c-1.5-9.1,0.9-18,5.9-25C35.2,19.1,28.9,22,20.7,22C6.7,22,0,16.1,0,16.1c7.5,36.7,30.5,44.1,49,45.6
			C42.5,56.6,37.8,49.1,36.4,40.3z M52.7,45.6c0.4-1.7,0.6-3.5,0.6-5.2l-3-3.2l-4.5,2.3c0,1.6-0.2,3.2-0.4,4.8
			c1.4-0.7,3.1-1.6,4-2.1C50.2,43.1,51.6,44.5,52.7,45.6z M80.7,51.7c0.1,1.7,0.3,4.1,0.5,5.4c-0.8,0.3-2.2,0.8-3.5,1.3
			c1.4,1,2.9,1.9,4.5,2.6l3.2-1.2l-0.3-4C83.5,54.6,82.1,53.2,80.7,51.7z M85.7,64.9c10.3,3,16.5,7.1,16.5,7.1V44.9
			C99.6,53.4,93.6,60.6,85.7,64.9z M49.5,54.6c0.8-1.5,1.5-3.1,2-4.8l-1.9-3.6l-4.7,1.1c-0.4,1.5-0.8,3-1.4,4.5
			c1.4-0.3,3.1-0.7,4-0.9C48,51.7,48.8,53.2,49.5,54.6z M49.2,33.4c1,0.6,2.7,1.7,4.1,2.5c0-0.1,0-0.2,0-0.2
			c-0.2-1.7-0.5-3.4-0.9-5.1l-3.7-2.3L45,31.7c0.3,1.5,0.6,3,0.8,4.5c0,0.1,0,0.2,0,0.3C46.9,35.5,48.3,34.2,49.2,33.4z M44.1,28.8
			c0.8-1.3,1.9-2.9,2.4-3.8c1,0.3,2.9,0.9,4.4,1.3c-0.7-1.7-1.5-3.4-2.5-5l-3.7-1.1l-2.6,4C43,25.7,43.6,27.2,44.1,28.8z"/>
	</g>
</g>
</svg>
